<?xml version="1.0" encoding="UTF-8"?>
<svg width="18px" height="18px" viewBox="0 0 18 18" version="1.1" xmlns="http://www.w3.org/2000/svg" xmlns:xlink="http://www.w3.org/1999/xlink">
    <title>Collisions</title>
    <g id="Collisions" stroke="none" stroke-width="1" fill="none" fill-rule="evenodd">
        <path d="M11.2409245,7.65929072 C11.9907665,7.67457183 12.7366689,7.72875032 13.4786316,7.84544246 C13.9316885,7.91768045 14.2862548,8.17884856 14.5108135,8.60810891 C14.7038551,8.97624482 14.8850778,9.35132668 15.0702402,9.72501935 C15.0978176,9.78336542 15.131961,9.81253845 15.1963082,9.8208736 C15.5009726,9.85977098 15.8043237,9.90144674 16.1089881,9.94590089 C16.3230411,9.97646312 16.4149657,10.0903769 16.4149657,10.3195936 C16.4149657,10.3793288 16.4175921,10.4404533 16.4149657,10.5001885 C16.4070864,10.633551 16.3204146,10.7224593 16.1943466,10.7238485 C16.001305,10.7266268 15.8108898,10.7252377 15.6086557,10.7252377 C15.6953274,10.8322054 15.7793728,10.9252813 15.850286,11.0280815 C16.0617126,11.335093 16.1667693,11.6879478 16.183841,12.0574729 C16.2140448,12.7117823 16.2179844,13.367481 16.2245504,14.0217905 C16.2298033,14.5427375 16.2271768,15.0636845 16.2284901,15.5860208 C16.2284901,15.8610808 16.1011088,16 15.8410936,16 L14.4490927,16 L14.4490927,16 C14.2035227,15.9986108 14.0695754,15.8569132 14.066949,15.5957451 L14.066949,15.2276092 C11.8725777,15.3762528 9.68345932,15.3762528 7.48514843,15.22622 L7.48514843,15.609637 L7.48514843,15.609637 C7.48383523,15.86247 7.3551408,16 7.11613687,16 L5.70312462,16 L5.70312462,16 C5.47331314,16 5.33936588,15.8652484 5.33936588,15.6249181 C5.33936588,14.524678 5.33411305,13.4258271 5.34593193,12.3255869 C5.35118476,11.862986 5.44179614,11.4156661 5.71100387,11.0308599 C5.78191712,10.9266705 5.86990208,10.8349838 5.95920026,10.7252377 L5.39058101,10.7252377 C5.23824884,10.7238485 5.15682991,10.6391077 5.1542035,10.4793507 C5.15289029,10.4196154 5.15289029,10.3598801 5.15289029,10.2987557 C5.15289029,10.0973228 5.25269413,9.97229554 5.44048293,9.94590089 C5.74120766,9.90283594 6.04193239,9.86116017 6.34265711,9.8222628 C6.41094395,9.81392764 6.45427983,9.78892219 6.48711004,9.72085177 C6.68015168,9.33743476 6.86662727,8.94985017 7.0741142,8.57615749 C7.29998605,8.16634583 7.64010703,7.90934529 8.08397147,7.84405327 C9.13059858,7.68568537 10.1851049,7.63845284 11.2409245,7.65929072 Z M7.08803421,5.9314136 C7.83656301,5.94669472 8.58377859,6.00087321 9.32442814,6.11756534 C9.78011146,6.18980333 10.1320513,6.45097144 10.3579232,6.8802318 L10.551,7.26277358 L10.2903525,7.2662021 C10.1522154,7.26928397 10.0156897,7.27370352 9.88062908,7.27946493 C9.88010919,7.27582154 9.87804078,7.27112504 9.87597567,7.2664272 C9.73808879,6.95246979 9.51615657,6.79965866 9.1931073,6.76353966 C8.29487274,6.65935026 7.39401177,6.60656096 6.49052438,6.61211772 C5.6658295,6.6162853 4.84376103,6.67046379 4.02431898,6.76909643 C3.75642446,6.80104785 3.55287716,6.92607514 3.42812236,7.18307567 C3.24952601,7.55121157 3.06961646,7.92073667 2.89102012,8.28748338 C2.88051445,8.31387803 2.87000878,8.34027268 2.8568767,8.3722241 L6.75633902,8.37156395 L6.75290342,8.37778086 C6.57299387,8.704241 6.40490319,9.04042549 6.24337856,9.36549644 L6.20529551,9.44329119 C5.91376324,9.48079938 5.63273664,9.52108595 5.3911063,9.55581575 C5.02078152,9.60860505 4.78046438,9.90033539 4.78046438,10.2990335 L4.78046438,10.3504336 C4.78046438,10.396277 4.78046438,10.4421203 4.78177759,10.4879636 C4.78834363,10.8060886 4.96431356,11.0366945 5.23352129,11.1005974 C5.06543061,11.4478954 4.97875885,11.8507611 4.97481923,12.3216972 C4.97032466,12.7407836 4.96834161,13.162859 4.96764209,13.5832143 C4.42359023,13.5650037 3.87824822,13.5369954 3.33225814,13.4997321 L3.33225814,13.8817599 C3.32963173,14.1359821 3.20225051,14.2721229 2.96193337,14.2721229 L1.55023433,14.2721229 C1.32042285,14.2707337 1.1877888,14.1373713 1.1877888,13.897041 C1.1877888,12.7968009 1.18253597,11.6979499 1.19304164,10.5977098 C1.19829447,10.1351089 1.28890585,9.687789 1.55811358,9.30298279 C1.63034004,9.19879339 1.71701179,9.10710671 1.80630997,8.99736054 L1.23769072,8.99736054 C1.08535855,8.99597134 1.00393963,8.91123063 1,8.75147354 L1,8.57087856 C1,8.36944571 1.09980384,8.24441842 1.28759264,8.21802378 C1.58700416,8.17495882 1.8890421,8.13328306 2.18845362,8.09438568 C2.25805366,8.08605053 2.30007633,8.06243426 2.33553296,7.99297466 C2.52594818,7.60955764 2.71505019,7.22336224 2.92122391,6.84828038 C3.14578255,6.43985791 3.48721674,6.18285737 3.93108118,6.11617615 C4.97770829,5.95780825 6.03090144,5.91057572 7.08803421,5.9314136 Z M15.3867235,12.4867332 C15.0137723,12.4867332 14.6473871,12.485344 14.281002,12.4895116 C14.256051,12.4895116 14.2232208,12.5325766 14.2100887,12.5631388 C14.0774547,12.8895989 13.9461338,13.2188374 13.814813,13.548076 C13.8003677,13.5869733 13.7859224,13.6272599 13.7675375,13.6758816 L15.3867235,13.6758816 L15.3867235,12.4867332 Z M6.24154007,12.4867332 C6.21658911,12.4867332 6.19426456,12.4909008 6.16668719,12.4936792 L6.16668719,13.6758816 L7.78193354,13.6758816 C7.77799391,13.6592113 7.77799391,13.6453194 7.77274108,13.6328167 C7.63222778,13.2688484 7.49302768,12.90488 7.34857476,12.5423009 C7.33806909,12.5145171 7.28816717,12.4895116 7.25533696,12.4881224 C6.91652919,12.485344 6.58034784,12.4867332 6.24154007,12.4867332 Z M12.2809856,13.2549564 C11.2803208,13.2563456 10.2783427,13.2549564 9.27636471,13.2563456 C9.23828167,13.2563456 9.19888541,13.2605132 9.164742,13.2757943 C9.0872627,13.3091349 9.04786645,13.374427 9.05837211,13.4661136 C9.06887778,13.5550219 9.11352687,13.6147572 9.20151183,13.6286491 L9.25289111,13.6322957 L9.25289111,13.6322957 L11.5626606,13.6328167 C11.8147966,13.6328167 12.0669326,13.6342059 12.3203818,13.6314275 C12.4661479,13.6300383 12.5449405,13.475838 12.4687744,13.3466431 C12.4254385,13.2730159 12.3584649,13.2549564 12.2809856,13.2549564 Z M2.08864978,10.7588561 C2.06501202,10.7588561 2.04006106,10.7630237 2.0137969,10.7658021 L2.0137969,11.9480045 L3.62904325,11.9480045 C3.62510362,11.9313342 3.62510362,11.9174423 3.61985079,11.9063288 C3.48065069,11.5409712 3.34013739,11.1770029 3.19568447,10.8144238 C3.18386559,10.7866399 3.13527688,10.7616345 3.10375988,10.7602453 C2.76495211,10.7574669 2.42614434,10.7588561 2.08864978,10.7588561 Z M10.6421015,8.33860565 C9.81740658,8.34416242 8.99665132,8.39834091 8.17589606,8.49697355 C7.90800154,8.52892496 7.70576745,8.65395225 7.58101265,8.91234198 C7.40372951,9.27908869 7.22381996,9.64722459 7.04522361,10.0153605 C7.03209153,10.0417551 7.02421228,10.0681498 7.00976699,10.1001012 L14.5462701,10.1001012 C14.526572,10.0556471 14.5160663,10.026474 14.501621,9.997301 C14.344036,9.66250571 14.1772585,9.33187799 14.028866,8.99430431 C13.8909791,8.6803469 13.6690469,8.52753577 13.3459976,8.49002759 C12.4464498,8.38722737 11.5469021,8.33443807 10.6421015,8.33860565 Z M12.2772605,1.82886258 L13.137,4.744 L16.1229634,3.65570679 L14.942,6.445 L17.3343059,7.3839814 L15.7857417,8.86980976 L15.3703381,8.43686659 L16.242,7.6 L14.1499658,6.77842616 L15.032,4.691 L12.7427349,5.52623358 L11.963,2.886 L9.95952436,4.60279099 L8.855,3.228 L8.4443671,4.73575008 L7.08,4.54 L7.25685365,5.03416659 L6.69176707,5.23585239 L6.18154694,3.80630928 L8.005,4.066 L8.58649455,1.93555461 L10.039,3.744 L12.2772605,1.82886258 Z" id="Combined-Shape" fill="#F70000"></path>
    </g>
</svg>