<?xml version="1.0" encoding="UTF-8"?>
<svg width="27px" height="18px" viewBox="0 0 27 18" version="1.1" xmlns="http://www.w3.org/2000/svg" xmlns:xlink="http://www.w3.org/1999/xlink">
    <title>Icon_tire pressure</title>
    <defs>
        <polygon id="path-1" points="0.000442105263 0.000294736842 13.5085263 0.000294736842 13.5085263 13.5085632 0.000442105263 13.5085632"></polygon>
    </defs>
    <g id="Icon_tire-pressure" stroke="none" stroke-width="1" fill="none" fill-rule="evenodd">
        <rect fill="#F70000" x="0" y="0" width="27" height="18"></rect>
        <g id="Group-3" transform="translate(7.000000, 2.000000)">
            <mask id="mask-2" fill="white">
                <use xlink:href="#path-1"></use>
            </mask>
            <g id="Clip-2"></g>
            <path d="M6.75654737,8.13458947 C6.25770526,8.13458947 5.96075789,8.39911579 5.96075789,8.85448421 C5.96075789,9.29953684 6.25770526,9.5648 6.75654737,9.5648 C7.25096842,9.5648 7.54938947,9.29953684 7.54938947,8.85448421 C7.54938947,8.39911579 7.25096842,8.13458947 6.75654737,8.13458947 L6.75654737,8.13458947 Z M6.11107368,2.81901053 L6.21791579,6.75448421 L7.29002105,6.75448421 L7.39612632,2.81901053 L6.11107368,2.81901053 Z M3.36854737,-0.000206663131 C3.0576,0.00501052632 2.81002105,0.259957895 2.81444211,0.570168421 L2.81444211,1.49343158 C2.49981053,1.78816842 0.000442105263,4.17406316 0.000442105263,7.31669474 C0.000442105263,10.1461684 2.28096842,12.1894316 2.81444211,12.6322737 L2.81444211,12.9388 C2.81149474,13.1414316 2.91833684,13.3300632 3.09370526,13.4317474 C3.26907368,13.5341684 3.48570526,13.5341684 3.66107368,13.4317474 C3.83644211,13.3300632 3.94328421,13.1414316 3.94033684,12.9388 L5.06623158,12.9388 C5.06328421,13.1414316 5.16938947,13.3300632 5.34475789,13.4317474 C5.52012632,13.5341684 5.73675789,13.5341684 5.91212632,13.4317474 C6.08749474,13.3300632 6.19433684,13.1414316 6.19138947,12.9388 L6.75433684,12.9388 L7.31728421,12.9388 C7.31433684,13.1414316 7.42117895,13.3300632 7.59654737,13.4317474 C7.77191579,13.5341684 7.98854737,13.5341684 8.16391579,13.4317474 C8.33854737,13.3300632 8.44612632,13.1414316 8.44317895,12.9388 L9.56833684,12.9388 C9.56612632,13.1414316 9.67223158,13.3300632 9.8476,13.4317474 C10.0237053,13.5341684 10.2403368,13.5341684 10.4157053,13.4317474 C10.5903368,13.3300632 10.6979158,13.1414316 10.6949684,12.9388 L10.6949684,12.6322737 C11.2269684,12.1894316 13.5089684,10.1461684 13.5089684,7.31669474 C13.5089684,4.17406316 11.0088632,1.78816842 10.6949684,1.49343158 L10.6949684,0.570168421 C10.6964421,0.417642105 10.6374947,0.271747368 10.5291789,0.164168421 C10.4216,0.0573263158 10.2749684,-0.00235789474 10.1224421,-0.000206663131 C9.81223158,0.00501052632 9.56465263,0.259957895 9.56833684,0.570168421 L9.56833684,1.93848421 L9.74738947,2.10501053 C9.74738947,2.10501053 12.3830737,4.68027368 12.3830737,7.31669474 C12.3830737,9.64585263 10.1032842,11.6338526 9.89402105,11.8143789 L7.96717895,11.8143789 C7.93549474,11.8084842 7.90381053,11.8062737 7.87138947,11.8062737 C7.84412632,11.8070105 7.81686316,11.8092211 7.7896,11.8143789 L6.75433684,11.8143789 L5.71538947,11.8143789 C5.68370526,11.8084842 5.65202105,11.8062737 5.62033684,11.8062737 C5.59233684,11.8070105 5.56507368,11.8092211 5.53854737,11.8143789 L3.61465263,11.8143789 C3.40538947,11.6338526 1.1256,9.64585263 1.1256,7.31669474 C1.1256,4.68027368 3.76202105,2.10501053 3.76202105,2.10501053 L3.94033684,1.93848421 L3.94033684,0.570168421 C3.94254737,0.417642105 3.88286316,0.271747368 3.77528421,0.164168421 C3.66696842,0.0573263158 3.52033684,-0.00235789474 3.36854737,-0.000206663131 L3.36854737,-0.000206663131 Z" id="Fill-1" fill="#FFFFFF" mask="url(#mask-2)"></path>
        </g>
    </g>
</svg>