<?xml version="1.0" encoding="UTF-8"?>
<svg width="18px" height="18px" viewBox="0 0 18 18" version="1.1" xmlns="http://www.w3.org/2000/svg" xmlns:xlink="http://www.w3.org/1999/xlink">
    <title>Service</title>
    <g id="Service" stroke="none" stroke-width="1" fill="none" fill-rule="evenodd">
        <path d="M2.81201008,3.35998956 C3.09236295,3.56525233 3.36826578,3.77706604 3.64194358,3.98887975 C3.80103271,4.11225578 3.95010924,4.24764186 4.10808585,4.37210971 C4.26606247,4.49548574 4.37175105,4.64943282 4.40067635,4.84705282 C4.4351642,5.07306024 4.55754045,5.23792555 4.72330465,5.3951481 C6.12951905,6.73590705 7.53017089,8.08103329 8.93304775,9.42506771 C8.97087314,9.4621897 9.01092355,9.49821987 9.09102437,9.57246385 C9.23787587,9.41087401 9.36470217,9.23945776 9.52156627,9.10407167 C9.86866983,8.80709575 10.3804251,8.9173699 10.574002,9.32461997 C10.62184,9.42288406 10.6329652,9.54080097 10.6496528,9.65107512 C10.7419913,10.2690471 11.1725332,10.7101437 11.7977646,10.7953059 C12.081455,10.8335197 12.3006197,10.949253 12.5019843,11.1501484 C13.3419304,11.9864851 14.1941141,12.8108116 15.0396228,13.6416891 C15.5558281,14.1504787 15.6403789,14.8525211 15.2009369,15.4093509 C14.9506219,15.7270715 14.6457937,16.0174965 14.3209404,16.2620649 C13.8314354,16.6300093 13.0994029,16.5590408 12.6577359,16.1332298 C11.7354639,15.2433938 10.8232046,14.3448233 9.90760773,13.4484364 C9.77521887,13.3196012 9.71514326,13.1580114 9.69178052,12.9767687 C9.60945467,12.3544295 9.2501135,11.9308021 8.68495771,11.7866814 C8.59261926,11.7626613 8.49471826,11.7561103 8.40015479,11.7430085 C8.11980192,11.7058865 7.91843736,11.5650413 7.82276138,11.3030037 C7.73153545,11.054068 7.77492339,10.819326 7.96738786,10.6271651 C8.10533928,10.4885036 8.25552831,10.3618521 8.41461744,10.2188232 C8.14538969,9.9458674 7.91064978,9.70566628 7.67368486,9.46655699 C6.52112306,8.30485706 5.36744875,7.14534077 4.21822448,5.98036536 C4.03688512,5.79584723 3.84775819,5.65063474 3.57853043,5.61678822 C3.39830359,5.59385993 3.25256459,5.49450401 3.14020094,5.35584246 C2.79865995,4.93549051 2.45711895,4.51623038 2.12114051,4.09260296 C1.94758873,3.87205466 1.95982636,3.79453521 2.16230343,3.59473156 C2.2279416,3.53140581 2.29135475,3.46589641 2.35588041,3.40147884 C2.52386963,3.23552171 2.62399566,3.22241983 2.81201008,3.35998956 Z M6.80714974,9.48249761 C7.05412726,9.71287232 7.28441712,9.92577785 7.5069194,10.1463261 C7.52471958,10.1627035 7.49913182,10.2413148 7.47243155,10.2762531 C7.15202827,10.6955132 7.09195265,11.1453444 7.31000488,11.6246548 C7.41569347,11.8615805 7.57367008,12.0100684 7.93857382,12.234984 C7.9074235,12.2731978 7.88072323,12.3114117 7.8484604,12.3441663 C6.76153677,13.4108777 5.67572565,14.4764972 4.58991454,15.5432085 C4.2250108,15.9024183 3.78890634,16.046539 3.28271365,15.9504585 C2.62076938,15.8259907 2.1635272,15.2538753 2.17131477,14.5911386 C2.17576482,14.1926231 2.33930399,13.8705353 2.6229944,13.5932121 C3.73995583,12.5013889 4.85469225,11.4062902 5.96942866,10.3111915 C6.25200655,10.0338684 6.53235942,9.75545343 6.80714974,9.48249761 Z M13.6305158,2.01158785 C14.2624223,2.06290354 14.8375907,2.28017637 15.3293207,2.68415097 C15.3649211,2.71253837 15.4027465,2.73765031 15.4605971,2.78023141 C15.2069445,2.91670932 14.9866672,3.03571805 14.7652775,3.15581861 C14.1622963,3.48118194 13.5593151,3.80982074 12.9529964,4.1319086 C12.8461953,4.18868341 12.8061449,4.2541928 12.8072574,4.37429336 C12.8105949,4.72149315 12.8005823,5.06978477 12.7905697,5.41698456 C12.7883447,5.49777948 12.8072574,5.54691153 12.8829082,5.59058446 C13.2010864,5.77182712 13.5159272,5.95852889 13.8263178,6.15068978 C13.9142062,6.20418912 13.9820694,6.19982183 14.0677328,6.15396525 C14.8231281,5.74453154 15.5807483,5.33728146 16.3383686,4.93003139 C16.3773065,4.90928675 16.4173569,4.89181758 16.4863326,4.85906288 C16.4918951,4.97042885 16.5019077,5.05777471 16.4996827,5.14512057 C16.4651949,6.37888084 15.6664117,7.49363238 14.4915997,7.94455538 C13.8975186,8.17165462 13.2889748,8.21205208 12.6659685,8.06793141 C12.3911782,8.00460566 12.1597758,8.11487981 11.9650863,8.30158159 C11.7292339,8.52868082 11.4978315,8.76123917 11.2642041,8.99052206 C11.2286038,9.0254604 11.1918909,9.0582151 11.1473904,9.09861256 C11.1206901,9.05930692 11.0984399,9.03310316 11.0795272,9.00253211 C10.6667855,8.31468347 9.81348926,8.14435904 9.17045768,8.62803674 C9.07255668,8.70228072 9.01693111,8.70555619 8.93349275,8.61602668 C8.7421408,8.40967209 8.54300126,8.20986843 8.33384912,7.99368743 C8.51630098,7.81462842 8.71210299,7.62028388 8.9090175,7.42593934 C9.28615886,7.05581126 9.66330023,6.68459135 10.0415541,6.31664692 C10.2573813,6.10701685 10.3374821,5.86244845 10.2918692,5.56547252 C10.1316675,4.49439392 10.4465082,3.57398692 11.2441789,2.82608799 C11.9105732,2.20265691 12.719369,1.93952751 13.6305158,2.01158785 Z" id="Combined-Shape" fill="#F70000"></path>
    </g>
</svg>