<?xml version="1.0" encoding="UTF-8"?>
<svg width="18px" height="18px" viewBox="0 0 18 18" version="1.1" xmlns="http://www.w3.org/2000/svg" xmlns:xlink="http://www.w3.org/1999/xlink">
    <title>Recall</title>
    <g id="Recall" stroke="none" stroke-width="1" fill="none" fill-rule="evenodd">
        <path d="M9.00224,12.0951467 C9.44464,12.0951467 9.70970667,12.3350133 9.70970667,12.74288 C9.70970667,13.1442133 9.44464,13.3831467 9.00224,13.3831467 C8.55610667,13.3831467 8.28917333,13.1442133 8.28917333,12.74288 C8.28917333,12.3350133 8.55517333,12.0951467 9.00224,12.0951467 L9.00224,12.0951467 Z M8.34704,7.52274667 L9.65277333,7.52274667 L9.54450667,11.0255467 L8.45530667,11.0255467 L8.34704,7.52274667 Z M9.00037333,2.99981333 C8.55237333,2.99981333 8.16877333,3.27421333 8.00637333,3.66434667 L2.16184,13.7919467 L2.16184,13.7938133 C2.05637333,13.9646133 2.00037333,14.1615467 2.00037333,14.3622133 C2.00037333,14.9595467 2.48197333,15.44488 3.07650667,15.44488 C3.10264,15.4439467 3.12784,15.4430133 3.15210667,15.4411467 L3.15490667,15.44488 L9.00037333,15.44488 L14.8449067,15.44488 L14.8467733,15.4402133 C14.8729067,15.4430133 14.8981067,15.4439467 14.9223733,15.44488 C15.51784,15.44488 16.0003733,14.9595467 16.0003733,14.3622133 C16.0003733,14.1615467 15.94344,13.96368 15.8379733,13.7919467 L15.8295733,13.7779467 L15.82864,13.7770133 L9.99344,3.66434667 C9.83104,3.27421333 9.44837333,2.99981333 9.00037333,2.99981333 L9.00037333,2.99981333 Z" id="Fill-1" fill="#F70000"></path>
    </g>
</svg>