<?xml version="1.0" encoding="UTF-8"?>
<svg width="27px" height="18px" viewBox="0 0 27 18" version="1.1" xmlns="http://www.w3.org/2000/svg" xmlns:xlink="http://www.w3.org/1999/xlink">
    <title>Icon_Engine Oil</title>
    <g id="Icon_Engine-Oil" stroke="none" stroke-width="1" fill="none" fill-rule="evenodd">
        <rect fill="#F70000" x="0" y="0" width="27" height="18"></rect>
        <path d="M21.1497218,10.6247897 C21.1497218,10.6247897 20.2994437,12.127849 20.2994437,12.5935857 C20.2994437,13.0593223 20.6805389,13.4376183 21.1497218,13.4376183 C21.6189048,13.4376183 22,13.0593223 22,12.5935857 C22,12.127849 21.1497218,10.6247897 21.1497218,10.6247897 L21.1497218,10.6247897 Z M6.13401331,7.24957933 L6.51047235,7.24957933 L7.84662376,8.24456225 C7.84106033,8.28690195 7.83364241,8.33016208 7.83364241,8.37434264 L7.83364241,9.65557874 L6.13401331,9.09411751 L6.13401331,7.24957933 Z M5.56654303,6.12481603 C5.25406349,6.12481603 5,6.37701337 5,6.68719768 L5,9.50002637 C5,9.74209899 5.15577615,9.95655877 5.38758591,10.0338747 L7.83364241,10.8429312 L7.83364241,12.8743163 C7.83364241,13.4956053 8.34084215,14 8.96672848,14 L16.3336424,14 C16.6980473,14 17.018872,13.8260391 17.2265736,13.5600353 L17.2284281,13.5646374 L17.2608814,13.518616 L17.2794262,13.4910032 L20.8659867,8.37434264 L21.433457,8.37434264 L22,7.24957933 L20.5924512,7.24957933 C20.3995855,7.24957933 20.211356,7.29836203 20.0435257,7.39132528 L17.4658012,8.81154605 L17.4658012,8.37434264 C17.4658012,7.75305358 16.9586015,7.24957933 16.3336424,7.24957933 L8.96672848,7.24957933 C8.80909785,7.24957933 8.65888513,7.28179432 8.52165376,7.3397813 L7.03992582,6.23710828 C6.94163849,6.16439445 6.82295189,6.12481603 6.70055634,6.12481603 L5.56654303,6.12481603 Z M11.2338279,5.00005273 C11.028908,4.99729145 10.838824,5.10314069 10.7359005,5.27894249 C10.632977,5.45382385 10.632977,5.67104491 10.7359005,5.84592628 C10.838824,6.02080764 11.028908,6.12757732 11.2338279,6.12481603 L13.5,6.12481603 C13.7039926,6.12757732 13.8940766,6.02080764 13.9979273,5.84592628 C14.0999236,5.67104491 14.0999236,5.45382385 13.9979273,5.27894249 C13.8940766,5.10314069 13.7039926,4.99729145 13.5,5.00005273 L11.2338279,5.00005273 Z" id="Fill-1" fill="#FFFFFF"></path>
    </g>
</svg>