<?xml version="1.0" encoding="UTF-8"?>
<svg width="18px" height="18px" viewBox="0 0 18 18" version="1.1" xmlns="http://www.w3.org/2000/svg" xmlns:xlink="http://www.w3.org/1999/xlink">
    <title>Drive_2</title>
    <g id="Drive_2" stroke="none" stroke-width="1" fill="none" fill-rule="evenodd">
        <path d="M4.42136053,10.3964302 L6.61696542,10.6715164 C6.8238206,10.9644518 7.07897697,11.219589 7.37718443,11.4211789 L7.75729393,13.4570271 C7.87699692,14.0943453 7.2280807,14.5930703 6.63481587,14.3295335 C5.32333308,13.7447128 4.26700668,12.6916154 3.67794195,11.380231 C3.45428636,10.880456 3.87744694,10.3292335 4.42136053,10.3964302 L4.42136053,10.3964302 Z M13.5796895,10.3953802 C14.1225531,10.3281836 14.5467637,10.880456 14.3231081,11.380231 C13.7340434,12.6905655 12.6777169,13.7436628 11.3651841,14.3284836 C10.7729693,14.5920204 10.1240531,14.0943453 10.2437561,13.4570271 L10.6238656,11.4211789 C10.921023,11.219589 11.1782795,10.9634018 11.3840846,10.6704665 L13.5796895,10.3953802 Z M9.00052501,8.41622919 C8.67816695,8.41622919 8.41671042,8.67766612 8.41671042,9 C8.41671042,9.32233388 8.67816695,9.58377081 9.00052501,9.58377081 C9.32183305,9.58377081 9.58433961,9.32233388 9.58433961,9 C9.58433961,8.67766612 9.32183305,8.41622919 9.00052501,8.41622919 L9.00052501,8.41622919 Z M9.00052501,7.24973751 C9.96549914,7.24973751 10.7498687,8.03509825 10.7498687,9 C10.7498687,9.96490175 9.96549914,10.7502625 9.00052501,10.7502625 C8.03555089,10.7502625 7.25013125,9.96490175 7.25013125,9 C7.25013125,8.03509825 8.03555089,7.24973751 9.00052501,7.24973751 L9.00052501,7.24973751 Z M9.00052501,3.17699115 L9.00052501,3.1780411 C9.84264607,3.17909105 10.6427661,3.35023249 11.3651841,3.67256637 C11.8943974,4.05894705 12.0970524,5.0679466 12.6535663,5.58557072 C13.2216305,6.11474426 13.8285457,6.27853607 14.4155104,6.84760762 C14.4155104,6.84760762 14.4165604,6.84655767 14.4176104,6.84550772 C14.5278632,7.12269387 14.6181655,7.41037948 14.6853671,7.70646468 C14.7546689,8.00884956 14.4942624,8.28498575 14.1887047,8.24088796 L11.6938423,7.8860057 C11.2549314,6.82975851 10.2143554,6.08324584 9.00052501,6.08324584 C7.78774469,6.08324584 6.74611865,6.82870856 6.30720768,7.8839058 L3.81234531,8.24088796 C3.50678767,8.28498575 3.24638116,8.00779961 3.31463287,7.70541473 C3.38288457,7.41037948 3.47318683,7.12269387 3.58448961,6.84550772 C3.58448961,6.84655767 3.58553964,6.84760762 3.58658966,6.84760762 C4.17250431,6.27853607 4.77941949,6.11474426 5.34748369,5.58557072 C5.9039976,5.0679466 6.10560264,4.05894705 6.63481587,3.67256637 C7.35828396,3.35023249 8.15945399,3.1780411 9.00052501,3.17699115 L9.00052501,3.17699115 Z M9.00052501,2 C5.14062852,2 2,5.14039298 2,9 C2,12.859607 5.14062852,16 9.00052501,16 C12.8604215,16 16,12.859607 16,9 C16,5.14039298 12.8604215,2 9.00052501,2 L9.00052501,2 Z" id="Fill-1" fill="#F70000"></path>
    </g>
</svg>