<?xml version="1.0" encoding="UTF-8"?>
<svg width="18px" height="18px" viewBox="0 0 18 18" version="1.1" xmlns="http://www.w3.org/2000/svg" xmlns:xlink="http://www.w3.org/1999/xlink">
    <title>Owners</title>
    <g id="Owners" stroke="none" stroke-width="1" fill="none" fill-rule="evenodd">
        <path d="M9.1297,8.9425 C10.6597,9.0025 11.8897,9.6735 12.8097,10.8985 C13.3137,11.5685 13.6197,12.3265 13.7477,13.1555 C13.8327,13.7035 13.8467,14.2515 13.7587,14.8025 C13.7367,14.9345 13.6867,14.9705 13.5577,14.9705 L11.2762,14.968375 L11.2762,14.968375 L8.9947,14.9685 C7.4827,14.9685 5.9717,14.9675 4.4607,14.9705 C4.3357,14.9705 4.2707,14.9425 4.2527,14.8075 C4.1487,14.0675 4.1487,13.3335 4.3547,12.6075 C4.6997,11.3895 5.3817,10.4165 6.4397,9.7135 C7.2547,9.1725 8.1587,8.9045 9.1297,8.9425 Z M7.2243,8.6432 C7.2533,8.6682 7.2863,8.6902 7.3433,8.7322 C6.6113,9.0212 5.9803,9.3932 5.4353,9.9092 C4.7183,10.5872 4.2183,11.3942 3.9523,12.3432 C3.9143,12.4792 3.8613,12.5162 3.7213,12.5152196 C2.9113,12.5072 2.1023,12.5082 1.2913,12.5142 C1.1853,12.5152196 1.1493,12.4862 1.1313,12.3812 C0.7723,10.2742 2.1073,8.2612 4.1063,7.8542 C5.2583,7.6192 6.3143,7.8702 7.2243,8.6432 Z M15.1974,8.3524 C16.2824,9.0364 16.8604,10.0544 16.9964,11.3274 C17.0344,11.6854 17.0264,12.0394 16.9634,12.3954 C16.9484,12.4794 16.9264,12.5144112 16.8354,12.5144112 C15.9604,12.5114 15.0854,12.5104 14.2104,12.5144112 C14.1024,12.5154 14.0914,12.4494 14.0704,12.3784 C13.9054,11.7904 13.6524,11.2444 13.2984,10.7454 C12.6554,9.8374 11.8094,9.1874 10.7574,8.7644 C11.0144,8.5094 11.2864,8.3094 11.5914,8.1654 C12.8244,7.5844 14.0434,7.6244 15.1974,8.3524 Z M9.0083,2.968 C10.5263,2.968 11.7623,4.201 11.7643054,5.717 C11.7673,7.238 10.5243,8.483 9.0053,8.48100241 C7.4843,8.48 6.2463,7.238 6.24929456,5.714 C6.2523,4.198 7.4883,2.968 9.0083,2.968 Z M6.3604,3.6815 C6.4284,3.7445 6.4374,3.7895 6.3794,3.8675 C5.9734,4.4225 5.7874,5.0505 5.7814,5.7335 C5.7774,6.1345 5.8494,6.5235 6.0024,6.8945 C6.0484,7.0055 6.0234,7.0545 5.9184,7.1115 C5.5944,7.2895 5.2524,7.3895 4.8814,7.3865 C3.8404,7.3915 2.9504,6.6775 2.7384,5.6655 C2.4824,4.4425 3.3594,3.2315 4.6024,3.0875 C5.2824,3.0085 5.8604,3.2255 6.3604,3.6815 Z M15.2371,4.3762 C15.7961,5.7202 14.9541,7.1802 13.5051,7.3782 C13.4271,7.3882 13.3461,7.3792 13.2671,7.3792 C12.8391,7.3832 12.4461,7.2662 12.0831,7.0392 C12.0071,6.9922 11.9921,6.9492 12.0231,6.8592 C12.3921,5.8282 12.2751,4.8512 11.6741,3.9362 C11.6131,3.8422 11.6371,3.7942 11.7021,3.7252 C12.7381,2.6252 14.6551,2.9782 15.2371,4.3762 Z" id="Combined-Shape" fill="#FF0000"></path>
    </g>
</svg>