<?xml version="1.0" encoding="UTF-8"?>
<svg width="18px" height="18px" viewBox="0 0 18 18" version="1.1" xmlns="http://www.w3.org/2000/svg" xmlns:xlink="http://www.w3.org/1999/xlink">
    <title>Odometer</title>
    <g id="Odometer" stroke="none" stroke-width="1" fill="none" fill-rule="evenodd">
        <path d="M9,2 C12.8596623,2 16,5.14033766 16,9 C16,12.8599725 12.8596623,16 9,16 C5.14033766,16 2,12.8599725 2,9 C2,5.14033766 5.14033766,2 9,2 Z M11.093424,12.0113307 L6.90651394,12.0113307 L6.90651394,12.882337 L11.093424,12.882337 L11.093424,12.0113307 Z M9.31111367,3.00792795 L9.31015642,4.08356007 L8.68978154,4.08356007 L8.68888633,3.00792795 C7.81726522,3.0524553 6.99473708,3.28301201 6.26023821,3.66067833 L6.79400895,4.58463686 L6.25738468,4.89513449 L5.72298038,3.97318604 C5.01406741,4.43628511 4.40910636,5.0452916 3.95074535,5.75757555 L4.93952231,6.31117118 L4.63646918,6.85244827 L3.64237111,6.29611683 C3.27556936,7.02145755 3.05173453,7.83138757 3.00792879,8.68886047 L4.227425,8.68984358 L4.227425,9.31021846 L3.00792879,9.31113953 C3.0434774,10.0069837 3.19758264,10.6715189 3.45043812,11.2849472 C4.36112051,10.8447604 6.35094838,10.0415719 8.80537207,9.99910037 L10.7263792,5.2886693 L11.3005362,5.52286081 L9.4733264,10.0065741 C11.7764364,10.0975645 13.6540866,10.839807 14.5564998,11.2668484 C14.8054007,10.6586029 14.956868,10.000223 14.9920712,9.31113953 L13.8857314,9.31021846 L13.8857314,8.68984358 L14.9920712,8.68886047 C14.9492453,7.85056667 14.7343536,7.05771276 14.3820267,6.34491448 L13.4765011,6.85244827 L13.173448,6.31117118 L14.078929,5.80415817 C13.0683233,4.20149561 11.3201248,3.11055964 9.31111367,3.00792795 Z" id="Combined-Shape" fill="#F70000"></path>
    </g>
</svg>