<?xml version="1.0" encoding="UTF-8"?>
<svg width="27px" height="18px" viewBox="0 0 27 18" version="1.1" xmlns="http://www.w3.org/2000/svg" xmlns:xlink="http://www.w3.org/1999/xlink">
    <title>Icon_airbag</title>
    <defs>
        <polygon id="path-1" points="0 0.000164705882 13.7256 0.000164705882 13.7256 13.7251059 0 13.7251059"></polygon>
    </defs>
    <g id="Icon_airbag" stroke="none" stroke-width="1" fill="none" fill-rule="evenodd">
        <rect fill="#F70000" x="0" y="0" width="27" height="18"></rect>
        <g id="Group-3" transform="translate(14.000000, 9.000000) scale(-1, 1) translate(-14.000000, -9.000000) translate(7.000000, 2.000000)">
            <mask id="mask-2" fill="white">
                <use xlink:href="#path-1"></use>
            </mask>
            <g id="Clip-2"></g>
            <path d="M5.13124706,11.6028706 L4.20642353,13.7251059 L5.46312941,13.7251059 L6.25865882,11.9001647 C6.41842353,11.8639294 6.56830588,11.8153412 6.56830588,11.8153412 L9.33454118,10.6689882 L11.6890118,13.4632235 C11.8446588,13.6246353 12.0587765,13.7251059 12.2959529,13.7251059 C12.7686588,13.7251059 13.1532471,13.3248706 13.1532471,12.8299294 C13.1532471,12.5976941 13.0659529,12.3876941 12.9267765,12.2287529 L10.7065412,8.94781176 C10.5072471,8.59451765 10.1432471,8.35487059 9.72242353,8.35487059 C9.65983529,8.35487059 9.59889412,8.36310588 9.5396,8.37298824 L7.65371765,8.69745882 L6.25865882,11.8985176 C6.16889412,11.9199294 6.07583529,11.9347529 6.00501176,11.9347529 C5.67065882,11.9347529 5.37336471,11.8046353 5.13124706,11.6028706 L5.13124706,11.6028706 Z M4.2896,5.37122353 C3.49983529,5.37122353 2.85912941,6.03910588 2.85912941,6.86263529 C2.85912941,7.14016471 2.93736471,7.39710588 3.06418824,7.62028235 L4.73595294,11.1169882 C4.83065882,11.3105176 4.97065882,11.4694588 5.13124706,11.6028706 L6.58395294,8.2684 L5.51583529,6.10745882 C5.26712941,5.66769412 4.81336471,5.37122353 4.2896,5.37122353 L4.2896,5.37122353 Z M-0.000164705882,4.6844 L-0.000164705882,6.05887059 L1.73007059,7.08992941 C1.72348235,7.01416471 1.71607059,6.9384 1.71607059,6.86263529 C1.71607059,6.49534118 1.78689412,6.14616471 1.91536471,5.82663529 L-0.000164705882,4.6844 Z M3.43148235,1.19345882 C2.4836,1.19345882 1.71607059,1.96181176 1.71607059,2.90887059 C1.71607059,3.85675294 2.4836,4.62510588 3.43148235,4.62510588 C4.37854118,4.62510588 5.14689412,3.85675294 5.14689412,2.90887059 C5.14689412,1.96181176 4.37854118,1.19345882 3.43148235,1.19345882 L3.43148235,1.19345882 Z M10.2947765,0.000164705882 C8.40642353,0.000164705882 6.86312941,1.54345882 6.86312941,3.43181176 C6.86312941,5.32016471 8.40642353,6.86263529 10.2947765,6.86263529 C12.1831294,6.86263529 13.7256,5.32016471 13.7256,3.43181176 C13.7256,1.54345882 12.1831294,0.000164705882 10.2947765,0.000164705882 L10.2947765,0.000164705882 Z" id="Fill-1" fill="#FFFFFF" mask="url(#mask-2)"></path>
        </g>
    </g>
</svg>