<?xml version="1.0" encoding="UTF-8"?>
<svg width="27px" height="18px" viewBox="0 0 27 18" version="1.1" xmlns="http://www.w3.org/2000/svg" xmlns:xlink="http://www.w3.org/1999/xlink">
    <title>Icon_ABS</title>
    <g id="Icon_ABS" stroke="none" stroke-width="1" fill="none" fill-rule="evenodd">
        <rect fill="#F70000" x="0" y="0" width="27" height="18"></rect>
        <path d="M21.8056526,6.54680762 L20.9202922,7.08095702 C20.8555097,6.91403533 20.758336,6.75824176 20.5963798,6.6135763 C20.3696412,6.42439839 20.1321054,6.3465016 19.8189902,6.3465016 C19.1495713,6.3465016 18.8040648,6.75824176 18.8040648,7.23675059 C18.8040648,7.45931284 18.8796443,7.84879677 19.5814544,8.1381277 L20.3048587,8.43858673 C21.6328993,8.99499235 22,9.77396022 22,10.6196968 C22,12.032967 21.0282629,13 19.6786281,13 C18.8472531,13 18.3505875,12.6772847 17.9834868,12.2544165 C17.594792,11.8104048 17.4220387,11.3207678 17.3788504,10.8088747 L18.4693554,10.5640562 C18.4693554,10.9312839 18.5989203,11.2762554 18.7716735,11.5088329 C18.976818,11.7770204 19.2791362,11.9550702 19.7120991,11.9550702 C20.3804382,11.9550702 20.898698,11.4543052 20.898698,10.7087217 C20.898698,9.95201002 20.3372499,9.64042287 19.8621785,9.44011685 L19.1722452,9.13965781 C18.5773261,8.88371123 17.7027628,8.37181806 17.7027628,7.25900682 C17.7027628,6.2574767 18.4585583,5.30045903 19.8081931,5.30045903 C20.5855827,5.30045903 21.0282629,5.60091807 21.2550016,5.80122409 C21.449349,5.97927389 21.6544935,6.23522048 21.8056526,6.54680762 L21.8056526,6.54680762 Z M13.618228,9.56252608 L13.618228,11.7870357 L14.2876469,11.7870357 C14.6007621,11.7870357 15.0974278,11.732508 15.3781518,11.4988176 C15.5940934,11.3207678 15.7344554,11.0080679 15.7344554,10.6742245 C15.7344554,10.3748783 15.6264846,10.0855474 15.4429343,9.89636945 C15.1406161,9.59591042 14.6979359,9.56252608 14.309241,9.56252608 L13.618228,9.56252608 Z M13.618228,6.50229517 L13.618228,8.62776464 L13.9529374,8.62776464 C14.2228644,8.62776464 14.5899651,8.5943803 14.8501747,8.33843372 C15.0974278,8.09361525 15.129819,7.74864376 15.129819,7.49269718 C15.129819,7.27013493 15.0974278,7.00306023 14.8706891,6.78049798 C14.6223563,6.53567951 14.309241,6.50229517 13.9961258,6.50229517 L13.618228,6.50229517 Z M12.516926,5.43399638 L13.6074309,5.43399638 C14.5359797,5.43399638 15.1201016,5.55640562 15.5940934,6.01265823 C15.9827882,6.39101405 16.1663385,6.86952288 16.1663385,7.48156906 C16.1663385,7.77089999 16.1231502,8.07135902 15.950397,8.36068994 C15.7884408,8.65002087 15.5735789,8.79468633 15.410543,8.87258311 C15.540108,8.90596745 15.9827882,9.02837669 16.3401715,9.40673251 C16.7277866,9.82960078 16.8141632,10.3414939 16.8141632,10.7977466 C16.8141632,11.3307831 16.6845983,11.7547642 16.3401715,12.13312 C15.7668466,12.7562943 14.8706891,12.8553345 14.3200381,12.8553345 L12.516926,12.8553345 L12.516926,5.43399638 Z M7.42934265,9.99652246 L9.61035249,9.99652246 L8.54036202,7.48156906 L7.42934265,9.99652246 Z M10.8077485,12.8553345 L10.051953,11.0648213 L6.97478565,11.0648213 L6.18659892,12.8553345 L5,12.8553345 L8.58355033,5 L11.9965068,12.8553345 L10.8077485,12.8553345 Z" id="Fill-1" fill="#FFFFFF"></path>
    </g>
</svg>