<?xml version="1.0" encoding="UTF-8"?>
<svg width="27px" height="18px" viewBox="0 0 27 18" version="1.1" xmlns="http://www.w3.org/2000/svg" xmlns:xlink="http://www.w3.org/1999/xlink">
    <title>Icon_Malfunction</title>
    <g id="Icon_Malfunction" stroke="none" stroke-width="1" fill="none" fill-rule="evenodd">
        <rect fill="#F70000" x="0" y="0" width="27" height="18"></rect>
        <path d="M14.0018667,12.0953333 C14.4442667,12.0953333 14.7093333,12.3352 14.7093333,12.7430667 C14.7093333,13.1444 14.4442667,13.3833333 14.0018667,13.3833333 C13.5557333,13.3833333 13.2888,13.1444 13.2888,12.7430667 C13.2888,12.3352 13.5548,12.0953333 14.0018667,12.0953333 L14.0018667,12.0953333 Z M13.3466667,7.52293333 L14.6524,7.52293333 L14.5441333,11.0257333 L13.4549333,11.0257333 L13.3466667,7.52293333 Z M14,3 C13.552,3 13.1684,3.2744 13.006,3.66453333 L7.16146667,13.7921333 L7.16146667,13.794 C7.056,13.9648 7,14.1617333 7,14.3624 C7,14.9597333 7.4816,15.4450667 8.07613333,15.4450667 C8.10226667,15.4441333 8.12746667,15.4432 8.15173333,15.4413333 L8.15453333,15.4450667 L14,15.4450667 L19.8445333,15.4450667 L19.8464,15.4404 C19.8725333,15.4432 19.8977333,15.4441333 19.922,15.4450667 C20.5174667,15.4450667 21,14.9597333 21,14.3624 C21,14.1617333 20.9430667,13.9638667 20.8376,13.7921333 L20.8292,13.7781333 L20.8282667,13.7772 L14.9930667,3.66453333 C14.8306667,3.2744 14.448,3 14,3 L14,3 Z" id="Fill-1" fill="#FFFFFF"></path>
    </g>
</svg>