<?xml version="1.0" encoding="UTF-8"?>
<svg width="27px" height="18px" viewBox="0 0 27 18" version="1.1" xmlns="http://www.w3.org/2000/svg" xmlns:xlink="http://www.w3.org/1999/xlink">
    <title>Icon_Battery</title>
    <g id="Icon_Battery" stroke="none" stroke-width="1" fill="none" fill-rule="evenodd">
        <rect fill="#F70000" x="0" y="0" width="27" height="18"></rect>
        <path d="M15.50027,11 L17.49937,11 C17.7762645,11 18.00012,11.223869 18.00012,11.5 C18.00012,11.776131 17.7762645,12 17.49937,12 L15.50027,12 C15.2241555,12 14.99952,11.776131 14.99952,11.5 C14.99952,11.223869 15.2241555,11 15.50027,11 L15.50027,11 Z M10.49979,10 C10.7759045,10 10.99976,10.223869 10.99976,10.5 L10.99976,11 L11.50051,11 C11.7758445,11 12.00048,11.223869 12.00048,11.5 C12.00048,11.776131 11.7758445,12 11.50051,12 L10.99976,12 L10.99976,12.5 C10.99976,12.776131 10.7759045,13 10.49979,13 C10.2236755,13 9.99982,12.776131 9.99982,12.5 L9.99982,12 L9.49985,12 C9.22451551,12 9.00065999,11.776131 9.00065999,11.5 C9.00065999,11.223869 9.22451551,11 9.49985,11 L9.99982,11 L9.99982,10.5 C9.99982,10.223869 10.2236755,10 10.49979,10 L10.49979,10 Z M7.49997,8 L7.49997,14.5 C7.49997,14.776131 7.72382552,15 7.99994,15 L19.00006,15 C19.2761745,15 19.50003,14.776131 19.50003,14.5 L19.50003,8 L7.49997,8 Z M9.49985,4 C9.22451551,4 9.00065999,4.22386895 9.00065999,4.5 L9.00065999,5 L7.49997,5 C7.22385552,5 7,5.22386895 7,5.5 L7,6.5 C7,6.77535101 7.22385552,7 7.49997,7 L19.50003,7 C19.7753645,7 20,6.77535101 20,6.5 L20,5.5 C20,5.22386895 19.7753645,5 19.50003,5 L18.00012,5 L18.00012,4.5 C18.00012,4.22386895 17.7762645,4 17.49937,4 L16.49943,4 C16.2240955,4 16.00024,4.22386895 16.00024,4.5 L16.00024,5 L10.99976,5 L10.99976,4.5 C10.99976,4.22386895 10.7759045,4 10.49979,4 L9.49985,4 Z" id="Fill-1" fill="#FFFFFF"></path>
    </g>
</svg>