<?xml version="1.0" encoding="UTF-8"?>
<svg width="18px" height="18px" viewBox="0 0 18 18" version="1.1" xmlns="http://www.w3.org/2000/svg" xmlns:xlink="http://www.w3.org/1999/xlink">
    <title>Person_white</title>
    <g id="Person_white" stroke="none" stroke-width="1" fill="none" fill-rule="evenodd">
        <path d="M9.1297,8.9425 C10.6597,9.0025 11.8897,9.6735 12.8097,10.8985 C13.3137,11.5685 13.6197,12.3265 13.7477,13.1555 C13.8327,13.7035 13.8467,14.2515 13.7587,14.8025 C13.7367,14.9345 13.6867,14.9705 13.5577,14.9705 L11.2762,14.968375 L11.2762,14.968375 L8.9947,14.9685 C7.4827,14.9685 5.9717,14.9675 4.4607,14.9705 C4.3357,14.9705 4.2707,14.9425 4.2527,14.8075 C4.1487,14.0675 4.1487,13.3335 4.3547,12.6075 C4.6997,11.3895 5.3817,10.4165 6.4397,9.7135 C7.2547,9.1725 8.1587,8.9045 9.1297,8.9425 Z M9.0083,2.968 C10.5263,2.968 11.7623,4.201 11.7643054,5.717 C11.7673,7.238 10.5243,8.483 9.0053,8.48100241 C7.4843,8.48 6.2463,7.238 6.24929456,5.714 C6.2523,4.198 7.4883,2.968 9.0083,2.968 Z" id="Combined-Shape" fill="#FFFFFF"></path>
    </g>
</svg>