<?xml version="1.0" encoding="UTF-8"?>
<svg width="27px" height="18px" viewBox="0 0 27 18" version="1.1" xmlns="http://www.w3.org/2000/svg" xmlns:xlink="http://www.w3.org/1999/xlink">
    <title>Icon_Break</title>
    <defs>
        <polygon id="path-1" points="0.000323809524 0.000404761905 16.1904762 0.000404761905 16.1904762 10.7936238 0.000323809524 10.7936238"></polygon>
    </defs>
    <g id="Icon_Break" stroke="none" stroke-width="1" fill="none" fill-rule="evenodd">
        <rect fill="#F70000" x="0" y="0" width="27" height="18"></rect>
        <g id="Group-3" transform="translate(5.000000, 4.000000)">
            <mask id="mask-2" fill="white">
                <use xlink:href="#path-1"></use>
            </mask>
            <g id="Clip-2"></g>
            <path d="M7.79522857,7.79530952 C7.63008571,7.79530952 7.49570476,7.92969048 7.49570476,8.09483333 L7.49570476,8.69469048 C7.49570476,8.85983333 7.63008571,8.99421429 7.79522857,8.99421429 L8.39508571,8.99421429 C8.56022857,8.99421429 8.69460952,8.85983333 8.69460952,8.69469048 L8.69460952,8.09483333 C8.69460952,7.92969048 8.56022857,7.79530952 8.39508571,7.79530952 L7.79522857,7.79530952 Z M7.79522857,1.79916667 C7.63008571,1.79916667 7.49570476,1.93354762 7.49570476,2.09869048 L7.49570476,5.99654762 C7.49570476,6.16169048 7.63008571,6.29607143 7.79522857,6.29607143 L8.39508571,6.29607143 C8.56022857,6.29607143 8.69460952,6.16169048 8.69460952,5.99654762 L8.69460952,2.09869048 C8.69460952,1.93354762 8.56022857,1.79916667 8.39508571,1.79916667 L7.79522857,1.79916667 Z M8.0955619,0.000404761905 C11.0713714,0.000404761905 13.4926571,2.42088095 13.4926571,5.39669048 C13.4926571,8.37330952 11.0713714,10.7937857 8.0955619,10.7937857 C5.11894286,10.7937857 2.69846667,8.37330952 2.69846667,5.39669048 C2.69846667,2.42088095 5.11894286,0.000404761905 8.0955619,0.000404761905 L8.0955619,0.000404761905 Z M2.65232381,1.02769048 C2.74218095,1.25111905 2.69846667,1.51259524 2.54384762,1.68259524 C1.6080381,2.74630952 1.07699048,4.1597381 1.07699048,5.66869048 C1.07699048,6.94854762 1.45827619,8.16202381 2.1455619,9.14640476 C2.27184762,9.31316667 2.3050381,9.54307143 2.23218095,9.74464286 C2.15932381,9.94702381 1.9925619,10.0886905 1.79584762,10.1145952 C1.59994286,10.1405 1.40646667,10.0457857 1.29960952,9.87902381 C0.462561905,8.68011905 0.000323809524,7.21083333 0.000323809524,5.66869048 C0.000323809524,3.8505 0.643895238,2.13916667 1.76832381,0.860928571 C1.86384762,0.748404762 1.9958,0.68202381 2.1350381,0.675547619 C2.35684762,0.664214286 2.56246667,0.804261905 2.65232381,1.02769048 L2.65232381,1.02769048 Z M14.4195619,0.857690476 C15.5472286,2.13916667 16.1908,3.8505 16.1908,5.66869048 C16.1908,7.21083333 15.7277524,8.68011905 14.8979905,9.86930952 C14.7838476,10.0457857 14.5903714,10.1405 14.3944667,10.1145952 C14.1985619,10.0886905 14.0309905,9.94702381 13.9581333,9.74464286 C13.8852762,9.54307143 13.9184667,9.31316667 14.0374667,9.15692857 C14.7320381,8.16202381 15.1141333,6.94935714 15.1141333,5.66869048 C15.1141333,4.1597381 14.5822762,2.74630952 13.6497048,1.68664286 C13.4950857,1.51583333 13.4489429,1.25840476 13.5347524,1.03578571 C13.6205619,0.81397619 13.8197048,0.670690476 14.0382762,0.674654517 C14.1839905,0.677166667 14.322419,0.744357143 14.4195619,0.857690476 L14.4195619,0.857690476 Z" id="Fill-1" fill="#FFFFFF" mask="url(#mask-2)"></path>
        </g>
    </g>
</svg>