<?xml version="1.0" encoding="UTF-8"?>
<svg width="27px" height="18px" viewBox="0 0 27 18" version="1.1" xmlns="http://www.w3.org/2000/svg" xmlns:xlink="http://www.w3.org/1999/xlink">
    <title>Icon_washer</title>
    <defs>
        <polygon id="path-1" points="0.0001 0 16.938 0 16.938 15 0.0001 15"></polygon>
    </defs>
    <g id="Icon_washer" stroke="none" stroke-width="1" fill="none" fill-rule="evenodd">
        <rect fill="#F70000" x="0" y="0" width="27" height="18"></rect>
        <g id="Group-3" transform="translate(5.000000, 2.000000)">
            <mask id="mask-2" fill="white">
                <use xlink:href="#path-1"></use>
            </mask>
            <g id="Clip-2"></g>
            <path d="M8.4691,7.5 C8.8141,7.5 9.0941,7.78 9.0941,8.125 C9.0941,8.47 8.8141,8.75 8.4691,8.75 C8.1241,8.75 7.8441,8.47 7.8441,8.125 C7.8441,7.78 8.1241,7.5 8.4691,7.5 L8.4691,7.5 Z M8.4691,5 C8.8141,5 9.0941,5.28 9.0941,5.625 C9.0941,5.97 8.8141,6.25 8.4691,6.25 C8.1241,6.25 7.8441,5.97 7.8441,5.625 C7.8441,5.28 8.1241,5 8.4691,5 L8.4691,5 Z M7.5401,11.34 C7.1041,11.423 6.6891,11.563 6.3011,11.752 L7.3361,13.225 C7.2601,13.39 7.2191,13.568 7.2191,13.75 C7.2191,14.44 7.7791,15 8.4691,15 C9.1591,15 9.7191,14.44 9.7191,13.75 C9.7191,13.06 9.1591,12.5 8.4691,12.5 C8.4321,12.5 8.3961,12.503 8.3591,12.506 L7.5401,11.34 Z M8.4691,4.375 C5.1521,4.375 2.1551,5.738 0.000100000017,7.932 L4.8611,12.794 C5.2721,12.365 5.7611,12.014 6.3011,11.752 L3.8941,8.321 C3.6961,8.04 3.7641,7.65 4.0471,7.451 C4.3271,7.252 4.7191,7.322 4.9171,7.605 L7.5401,11.34 C7.8421,11.283 8.1511,11.25 8.4691,11.25 C9.8891,11.25 11.1661,11.845 12.0761,12.794 L16.9391,7.932 C14.7841,5.738 11.7861,4.375 8.4691,4.375 L8.4691,4.375 Z M15.9691,2.5 C15.6241,2.5 15.3441,2.78 15.3441,3.125 C15.3441,3.47 15.6241,3.75 15.9691,3.75 C16.3151,3.75 16.5941,3.47 16.5941,3.125 C16.5941,2.78 16.3151,2.5 15.9691,2.5 L15.9691,2.5 Z M8.4691,2.5 C8.1241,2.5 7.8441,2.78 7.8441,3.125 C7.8441,3.47 8.1241,3.75 8.4691,3.75 C8.8141,3.75 9.0941,3.47 9.0941,3.125 C9.0941,2.78 8.8141,2.5 8.4691,2.5 L8.4691,2.5 Z M0.9691,2.5 C0.6241,2.5 0.3441,2.78 0.3441,3.125 C0.3441,3.47 0.6241,3.75 0.9691,3.75 C1.3141,3.75 1.5941,3.47 1.5941,3.125 C1.5941,2.78 1.3141,2.5 0.9691,2.5 L0.9691,2.5 Z M14.7191,0.625 C14.3741,0.625 14.0941,0.905 14.0941,1.25 C14.0941,1.595 14.3741,1.875 14.7191,1.875 C15.0651,1.875 15.3441,1.595 15.3441,1.25 C15.3441,0.905 15.0651,0.625 14.7191,0.625 L14.7191,0.625 Z M9.7191,0.625 C9.3741,0.625 9.0941,0.905 9.0941,1.25 C9.0941,1.595 9.3741,1.875 9.7191,1.875 C10.0651,1.875 10.3441,1.595 10.3441,1.25 C10.3441,0.905 10.0651,0.625 9.7191,0.625 L9.7191,0.625 Z M7.2191,0.625 C6.8741,0.625 6.5941,0.905 6.5941,1.25 C6.5941,1.595 6.8741,1.875 7.2191,1.875 C7.5641,1.875 7.8441,1.595 7.8441,1.25 C7.8441,0.905 7.5641,0.625 7.2191,0.625 L7.2191,0.625 Z M2.2191,0.625 C1.8741,0.625 1.5941,0.905 1.5941,1.25 C1.5941,1.595 1.8741,1.875 2.2191,1.875 C2.5641,1.875 2.8441,1.595 2.8441,1.25 C2.8441,0.905 2.5641,0.625 2.2191,0.625 L2.2191,0.625 Z M12.2191,-7.99360578e-15 C11.8741,-7.99360578e-15 11.5941,0.28 11.5941,0.625 C11.5941,0.97 11.8741,1.25 12.2191,1.25 C12.5651,1.25 12.8441,0.97 12.8441,0.625 C12.8441,0.28 12.5651,-7.99360578e-15 12.2191,-7.99360578e-15 L12.2191,-7.99360578e-15 Z M4.7191,-7.99360578e-15 C4.3741,-7.99360578e-15 4.0941,0.28 4.0941,0.625 C4.0941,0.97 4.3741,1.25 4.7191,1.25 C5.0641,1.25 5.3441,0.97 5.3441,0.625 C5.3441,0.28 5.0641,-7.99360578e-15 4.7191,-7.99360578e-15 L4.7191,-7.99360578e-15 Z" id="Fill-1" fill="#FFFFFF" mask="url(#mask-2)"></path>
        </g>
    </g>
</svg>