<?xml version="1.0" encoding="UTF-8"?>
<svg width="27px" height="18px" viewBox="0 0 27 18" version="1.1" xmlns="http://www.w3.org/2000/svg" xmlns:xlink="http://www.w3.org/1999/xlink">
    <title>Icon_Service Engine</title>
    <g id="Icon_Service-Engine" stroke="none" stroke-width="1" fill="none" fill-rule="evenodd">
        <rect fill="#F70000" x="0" y="0" width="27" height="18"></rect>
        <path d="M6.29971199,7.61538462 C6.13410536,7.61538462 6,7.75292308 6,7.92276923 L6,12.8464615 C6,13.0163077 6.13410536,13.1538462 6.29971199,13.1538462 L7.49945998,13.1538462 C7.6650666,13.1538462 7.800072,13.0163077 7.800072,12.8464615 L7.800072,11.3076923 L8.09978399,11.3076923 L8.09978399,9.46153846 L7.800072,9.46153846 L7.800072,7.92276923 C7.800072,7.75292308 7.6650666,7.61538462 7.49945998,7.61538462 L6.29971199,7.61538462 Z M11.99964,5.76923077 C11.775531,5.76923077 11.550522,5.85969231 11.3813153,6.03876923 L10.0591624,7.61538462 L9.29953198,7.61538462 C8.83691348,7.61538462 8.39949598,8.06307692 8.39949598,8.53846154 L8.39949598,12.2307692 C8.39949598,12.7135385 8.82881315,13.1538462 9.29953198,13.1538462 L10.0591624,13.1538462 L11.400216,14.7396923 C11.5568223,14.904 11.775531,15 11.99964,15 L15.8526941,15 C16.075903,15 16.2955118,14.904 16.4530181,14.7396923 L18.6563063,12.4421538 C18.8147126,12.2769231 18.900216,12.0609231 18.900216,11.8264615 L18.900216,11.3076923 L19.199928,11.3076923 L19.199928,12.5381538 C19.199928,12.7089231 19.3331333,12.8464615 19.50054,12.8464615 L20.700288,12.8464615 C20.8667947,12.8464615 21,12.7089231 21,12.5381538 L21,7.61538462 C21,7.44461538 20.8667947,7.308 20.700288,7.308 L19.50054,7.308 C19.3331333,7.308 19.199928,7.44461538 19.199928,7.61538462 L19.199928,8.84584615 L18.900216,8.84584615 L18.900216,6.64430769 C18.900216,6.16061538 18.5213009,5.76923077 18.0568823,5.76923077 L11.99964,5.76923077 Z M12.300252,3 C12.1346454,3 11.99964,3.13753846 11.99964,3.30738462 L11.99964,4.53876923 C11.99964,4.70769231 12.1346454,4.84615385 12.300252,4.84615385 L13.5,4.84615385 L13.5,5.46184615 L15.300072,5.46184615 L15.300072,4.84615385 L16.49982,4.84615385 C16.6672267,4.84615385 16.800432,4.70769231 16.800432,4.53876923 L16.800432,3.30738462 C16.800432,3.13753846 16.6672267,3 16.49982,3 L12.300252,3 Z" id="Fill-1" fill="#FFFFFF"></path>
    </g>
</svg>