<?xml version="1.0" encoding="UTF-8"?>
<svg width="117px" height="72px" viewBox="0 0 117 72" version="1.1" xmlns="http://www.w3.org/2000/svg" xmlns:xlink="http://www.w3.org/1999/xlink">
    <title>Odometer_3</title>
    <defs>
        <polygon id="path-1" points="0.264779167 0.1738 12.0728208 0.1738 12.0728208 18.7916667 0.264779167 18.7916667"></polygon>
        <polygon id="path-3" points="0.0542208333 0.0953791667 5.29925 0.0953791667 5.29925 19.3806708 0.0542208333 19.3806708"></polygon>
        <polygon id="path-5" points="0 0.095425 5.2452125 0.095425 5.2452125 19.381175 0 19.381175"></polygon>
        <polygon id="path-7" points="0.101429167 0.173754167 11.9094708 0.173754167 11.9094708 18.7916667 0.101429167 18.7916667"></polygon>
    </defs>
    <g id="Odometer_3" stroke="none" stroke-width="1" fill="none" fill-rule="evenodd">
        <g id="Group-85" transform="translate(15.000000, 1.000000)">
            <g id="Group-3" transform="translate(74.250000, 52.018542)">
                <mask id="mask-2" fill="white">
                    <use xlink:href="#path-1"></use>
                </mask>
                <g id="Clip-2"></g>
                <path d="M12.0728208,1.04738333 C11.7625292,2.63596667 11.3161125,4.21309167 10.8256958,5.77784167 C10.2908208,7.33388333 9.71790417,8.8858 8.98777917,10.38455 C7.5871125,13.4031333 5.70794583,16.2374667 3.5212375,18.7917583 L0.264779167,15.9578833 C4.15419583,11.4758417 6.69977917,5.91946667 7.8456125,0.1738 L12.0728208,1.04738333 Z" id="Fill-1" fill="#FF0000" mask="url(#mask-2)"></path>
            </g>
            <path d="M77.2141333,62.4403083 C76.2200083,64.1696 75.0608833,65.80585 73.754175,67.3151417 L70.8781333,64.8126417 C72.021675,63.4908083 73.0359667,62.0594333 73.9104667,60.5377667 L77.2141333,62.4403083 Z" id="Fill-4" fill="#F4F4F4"></path>
            <path d="M81.1081792,51.9881542 C80.7057625,53.9392792 80.1594292,55.8624458 79.4517625,57.7274042 L75.8895958,56.3693625 C76.5188875,54.7088208 77.0106792,52.9827375 77.3745958,51.2158625 L81.1081792,51.9881542 Z" id="Fill-6" fill="#F4F4F4"></path>
            <path d="M79.6239583,62.5427917 L72.664625,58.832125 C73.073,58.0767917 73.43875,57.2930417 73.772875,56.4914167 L81.0525833,59.5246667 C80.6254167,60.5499583 80.152875,61.5605833 79.6239583,62.5427917" id="Fill-8" fill="#FF0000"></path>
            <g id="Group-12" transform="translate(82.041667, 33.685208)">
                <mask id="mask-4" fill="white">
                    <use xlink:href="#path-3"></use>
                </mask>
                <g id="Clip-11"></g>
                <path d="M4.30847083,0.0953791667 C4.4922625,0.896545833 4.62380417,1.70917083 4.77917917,2.51675417 C4.88597083,3.33212917 5.01292917,4.14612917 5.09222083,4.96425417 C5.14859583,5.78375417 5.25034583,6.6023375 5.25997083,7.42412917 C5.27967917,8.2413375 5.31680417,9.08054583 5.2897625,9.85650417 C5.2443875,13.0125875 4.94830417,16.2057958 4.28097083,19.3806708 L0.0542208333,18.5070875 C0.6587625,15.6342542 0.931470833,12.7100875 0.9736375,9.79600417 C1.01442917,6.86817083 0.7563875,3.90367083 0.0954708333,1.03542083 L4.30847083,0.0953791667 Z" id="Fill-10" fill="#FF0000" mask="url(#mask-4)"></path>
            </g>
            <path d="M81.907375,46.0709792 C81.7703333,48.0573958 81.5109167,50.0364792 81.1080417,51.9880625 L77.3749167,51.2162292 C77.7392917,49.4493542 77.9767083,47.6430625 78.1036667,45.8161458 L81.907375,46.0709792 Z" id="Fill-13" fill="#F4F4F4"></path>
            <path d="M81.1529583,34.93985 C81.57875,36.888225 81.849625,38.868225 81.9683333,40.859225 L78.1614167,41.0595167 C78.05325,39.2798083 77.81125,37.5111 77.4322083,35.77035 L81.1529583,34.93985 Z" id="Fill-15" fill="#F4F4F4"></path>
            <path d="M84.1177792,45.1288292 L76.2394875,44.7717875 C76.2715708,44.3139125 76.2692792,43.8491625 76.2789042,43.3871625 L76.2889875,42.6959958 L76.2697375,42.0373708 L84.1539875,41.8508292 C84.1736958,42.4063292 84.1824042,42.9572458 84.1649875,43.4971625 C84.1539875,44.0412042 84.1539875,44.5847875 84.1177792,45.1288292" id="Fill-17" fill="#FF0000"></path>
            <path d="M77.7969042,16.2820167 C81.9351958,21.3168083 84.9088625,27.3571833 86.3503208,33.780725 L82.1373208,34.7203083 C80.8452792,28.9728083 78.1841958,23.54935 74.4519875,19.010475 L77.7969042,16.2820167 Z" id="Fill-19" fill="#FF0000"></path>
            <path d="M79.3681625,29.2388708 C80.1083708,31.0882458 80.7303292,32.9903292 81.1529125,34.9396208 L77.4321625,35.7701208 C77.0558708,34.0275375 76.4967042,32.3275792 75.8353292,30.6711625 L79.3681625,29.2388708 Z" id="Fill-21" fill="#F4F4F4"></path>
            <path d="M73.670575,19.6478792 C74.9268667,21.1933792 76.0855333,22.8245875 77.0741583,24.5561708 L73.777825,26.4724625 C72.8918667,24.9164208 71.847325,23.4502125 70.7166167,22.0577958 L73.670575,19.6478792 Z" id="Fill-23" fill="#F4F4F4"></path>
            <path d="M80.9468458,27.407325 L73.7258042,30.5776167 C73.3550125,29.7773667 72.9846792,28.9762 72.5524708,28.204825 L79.4788042,24.4341167 C80.0173458,25.3993667 80.4862208,26.4022 80.9468458,27.407325" id="Fill-25" fill="#FF0000"></path>
            <path d="M62.5781292,4.31475 C68.4379208,7.137625 73.6872125,11.2163333 77.7970875,16.2818333 L74.4521708,19.0102917 C70.7497542,14.4434583 66.0023375,10.7570833 60.7136292,8.20783333 L62.5781292,4.31475 Z" id="Fill-27" fill="#FF0000"></path>
            <path d="M69.5513958,15.323275 C71.0441875,16.64465 72.4086458,18.1067333 73.6704375,19.6481083 L70.7164792,22.0575667 C69.5798125,20.6697333 68.3505625,19.3497333 67.0021458,18.1580667 L69.5513958,15.323275 Z" id="Fill-29" fill="#F4F4F4"></path>
            <path d="M60.2781667,9.11744167 C62.0794167,9.971775 63.8009167,10.9879 65.4495417,12.105775 L63.2995,15.2536083 C61.810375,14.245275 60.2570833,13.3263167 58.631375,12.5558583 L60.2781667,9.11744167 Z" id="Fill-31" fill="#F4F4F4"></path>
            <path d="M70.1654708,12.9953542 L65.0504708,18.9986042 C64.3785542,18.4123958 63.6649292,17.8766042 62.9517625,17.3408125 L67.5708458,10.9488958 C68.4545125,11.6075208 69.3331375,12.2730208 70.1654708,12.9953542" id="Fill-33" fill="#FF0000"></path>
            <path d="M43.6703208,0 C50.1960708,0.0114583333 56.7131125,1.50104167 62.5779458,4.31475 L60.7139042,8.20783333 C55.4178625,5.66820833 49.5484458,4.32895833 43.6703208,4.31658333 L43.6703208,0 Z" id="Fill-35" fill="#FF0000"></path>
            <path d="M54.7088208,6.957775 C56.6145708,7.54169167 58.4772375,8.264025 60.2780292,9.11744167 L58.6312375,12.5558583 C57.0059875,11.7863167 55.3266542,11.1354833 53.6092792,10.6084 L54.7088208,6.957775 Z" id="Fill-37" fill="#F4F4F4"></path>
            <path d="M43.6703208,5.32455 C45.6640708,5.339675 47.6550708,5.49596667 49.6254458,5.79709167 L49.0309875,9.56275833 C47.2567792,9.29234167 45.4651542,9.15209167 43.6703208,9.13696667 L43.6703208,5.32455 Z" id="Fill-39" fill="#F4F4F4"></path>
            <path d="M54.271525,4.59405833 L52.2016917,12.204225 C51.7763583,12.0740583 51.3423167,11.9782667 50.9087333,11.8820167 C50.4760667,11.7825583 50.0438583,11.6766833 49.604775,11.6106833 L51.0466917,3.85705833 C51.5921083,3.943225 52.1288167,4.069725 52.6664417,4.19393333 C53.2049833,4.314475 53.7430667,4.43593333 54.271525,4.59405833" id="Fill-41" fill="#FF0000"></path>
            <path d="M24.7625125,4.31520833 C30.6273458,1.50104167 37.1443875,0.0114583333 43.6701375,0 L43.6701375,4.31658333 C37.7924708,4.32895833 31.9230542,5.66820833 26.6270125,8.20829167 L24.7625125,4.31520833 Z" id="Fill-43" fill="#FF0000"></path>
            <path d="M37.7151042,5.79718333 C39.6854792,5.49605833 41.6769375,5.33976667 43.6702292,5.32464167 L43.6702292,9.13705833 C41.8753958,9.151725 40.0837708,9.29243333 38.3100208,9.56285 L37.7151042,5.79718333 Z" id="Fill-45" fill="#F4F4F4"></path>
            <path d="M27.0626583,9.11744167 C28.8639083,8.26448333 30.7261167,7.54169167 32.6318667,6.95823333 L33.7314083,10.6084 C32.0144917,11.1354833 30.3351583,11.786775 28.70945,12.5558583 L27.0626583,9.11744167 Z" id="Fill-47" fill="#F4F4F4"></path>
            <path d="M36.2939958,3.856875 L37.7359125,11.6105 C37.2968292,11.6769583 36.8650792,11.782375 36.4319542,11.8822917 C35.9979125,11.9785417 35.5643292,12.0743333 35.1385375,12.2045 L33.0691625,4.593875 C33.5976208,4.43620833 34.1357042,4.31429167 34.6742458,4.19375 C35.2118708,4.07045833 35.7485792,3.94304167 36.2939958,3.856875" id="Fill-49" fill="#FF0000"></path>
            <path d="M9.54396667,16.2820167 C13.6538417,11.2160583 18.9031333,7.13780833 24.7624667,4.31539167 L26.6269667,8.208475 C21.3382583,10.7568083 16.5908417,14.4431833 12.8888833,19.010475 L9.54396667,16.2820167 Z" id="Fill-51" fill="#FF0000"></path>
            <path d="M21.8909625,12.1055458 C23.5400458,10.9881292 25.2615458,9.97200417 27.0627958,9.1172125 L28.7091292,12.5556292 C27.0834208,13.3260875 25.5301292,14.2455042 24.0410042,15.2533792 L21.8909625,12.1055458 Z" id="Fill-53" fill="#F4F4F4"></path>
            <path d="M13.6700667,19.6478792 C14.9323167,18.1069625 16.296775,16.6444208 17.7895667,15.3230458 L20.3383583,18.1582958 C18.9899417,19.3499625 17.76115,20.6695042 16.6244833,22.0577958 L13.6700667,19.6478792 Z" id="Fill-55" fill="#F4F4F4"></path>
            <path d="M19.7696125,10.9489417 L24.3891542,17.3413167 C23.6759875,17.87665 22.9623625,18.4124417 22.2904458,18.99865 L17.1754458,12.9958583 C18.0077792,12.2730667 18.8864042,11.6075667 19.7696125,10.9489417" id="Fill-57" fill="#FF0000"></path>
            <path d="M0.9906875,33.7805875 C2.43260417,27.3575042 5.40535417,21.3175875 9.54410417,16.2818792 L12.8885625,19.0103375 C9.15635417,23.5496708 6.49527083,28.9735875 5.2036875,34.7206292 L0.9906875,33.7805875 Z" id="Fill-59" fill="#FF0000"></path>
            <path d="M10.266575,24.5566292 C11.2552,22.8245875 12.4138667,21.1938375 13.6701583,19.6478792 L16.624575,22.0577958 C15.49295,23.4502125 14.4488667,24.9164208 13.56245,26.4724625 L10.266575,24.5566292 Z" id="Fill-61" fill="#F4F4F4"></path>
            <path d="M6.18768333,34.9403083 C6.61026667,32.9905583 7.23268333,31.0889333 7.97289167,29.2391 L11.505725,30.6713917 C10.8438917,32.3278083 10.2851833,34.028225 9.90889167,35.77035 L6.18768333,34.9403083 Z" id="Fill-63" fill="#F4F4F4"></path>
            <path d="M7.86188333,24.4339792 L14.788675,28.2051458 C14.3560083,28.9765208 13.9861333,29.7776875 13.6153417,30.5774792 L6.39384167,27.4071875 C6.854925,26.4020625 7.3238,25.3996875 7.86188333,24.4339792" id="Fill-65" fill="#FF0000"></path>
            <g id="Group-69" transform="translate(0.000000, 33.685208)">
                <mask id="mask-6" fill="white">
                    <use xlink:href="#path-5"></use>
                </mask>
                <g id="Clip-68"></g>
                <path d="M1.01800417,19.381175 C0.351129167,16.2063 0.0550458333,13.012175 0.00967083333,9.85655 C-0.0178291667,9.08105 0.0192958333,8.24184167 0.0394625,7.424175 C0.0486291667,6.60238333 0.1508375,5.78425833 0.206754167,4.9643 C0.286045833,4.146175 0.4134625,3.332175 0.520254167,2.51725833 C0.675170833,1.709675 0.807170833,0.896591667 0.990504167,0.095425 L5.20350417,1.03546667 C4.54304583,3.90325833 4.28500417,6.868675 4.32579583,9.79605 C4.3679625,12.7101333 4.6402125,15.6343 5.2452125,18.5071333 L1.01800417,19.381175 Z" id="Fill-67" fill="#FF0000" mask="url(#mask-6)"></path>
            </g>
            <path d="M5.3724,40.859225 C5.49156667,38.868225 5.76244167,36.888225 6.187775,34.9403083 L9.908525,35.7698917 C9.52948333,37.5111 9.28748333,39.2802667 9.179775,41.0595167 L5.3724,40.859225 Z" id="Fill-70" fill="#F4F4F4"></path>
            <path d="M6.23269167,51.9881542 C5.830275,50.0365708 5.57085833,48.0574875 5.43335833,46.0710708 L9.237525,45.8166958 C9.364025,47.6431542 9.6019,49.4499042 9.966275,51.2163208 L6.23269167,51.9881542 Z" id="Fill-72" fill="#F4F4F4"></path>
            <path d="M3.18702083,41.8506458 L11.0712708,42.0371875 L11.0520208,42.6967292 L11.0616458,43.3874375 C11.0717292,43.8494375 11.0689792,44.3141875 11.1015208,44.7716042 L3.22322917,45.1286458 C3.18702083,44.5846042 3.18702083,44.0410208 3.17602083,43.4974375 C3.15860417,42.9575208 3.1673125,42.4061458 3.18702083,41.8506458" id="Fill-74" fill="#FF0000"></path>
            <g id="Group-78" transform="translate(0.916667, 52.018542)">
                <mask id="mask-8" fill="white">
                    <use xlink:href="#path-7"></use>
                </mask>
                <g id="Clip-77"></g>
                <path d="M8.6530125,18.7917125 C6.46630417,16.2378792 4.5871375,13.4030875 3.18692917,10.3845042 C2.45634583,8.88575417 1.88297083,7.33429583 1.34809583,5.77779583 C0.8581375,4.21304583 0.411720833,2.63637917 0.101429167,1.04779583 L4.3286375,0.173754167 C5.47447083,5.91987917 8.02005417,11.4762542 11.9094708,15.9582958 L8.6530125,18.7917125 Z" id="Fill-76" fill="#FF0000" mask="url(#mask-8)"></path>
            </g>
            <path d="M7.8892,57.7275875 C7.18153333,55.8630875 6.6352,53.9390042 6.23278333,51.9883375 L9.96636667,51.2165042 C10.3302833,52.9824625 10.8216167,54.7090042 11.4513667,56.3690875 L7.8892,57.7275875 Z" id="Fill-79" fill="#F4F4F4"></path>
            <path d="M13.5868333,67.3150042 C12.2796667,65.8061708 11.121,64.1703792 10.126875,62.4401708 L13.4305417,60.5376292 C14.3050417,62.0592958 15.3193333,63.4906708 16.462875,64.8125042 L13.5868333,67.3150042 Z" id="Fill-81" fill="#F4F4F4"></path>
            <path d="M6.28819583,59.5246667 L13.5679042,56.4914167 C13.9020292,57.2930417 14.2682375,58.0767917 14.6761542,58.832125 L7.71727917,62.54325 C7.18790417,61.5605833 6.71582083,60.5504167 6.28819583,59.5246667" id="Fill-83" fill="#FF0000"></path>
        </g>
    </g>
</svg>