<?xml version="1.0" encoding="UTF-8"?>
<svg width="90px" height="99px" viewBox="0 0 90 99" version="1.1" xmlns="http://www.w3.org/2000/svg" xmlns:xlink="http://www.w3.org/1999/xlink">
    <!-- Generator: Sketch 55.2 (78181) - https://sketchapp.com -->
    <title>Toyota-Logo</title>
    <desc>Created with Sketch.</desc>
    <g id="Toyota---Forge-Rock--" stroke="none" stroke-width="1" fill="none" fill-rule="evenodd">
        <g id="00a-Sign-In/Sign-Up-Toyota" transform="translate(-143.000000, -80.000000)" fill-rule="nonzero">
            <g id="Toyota-Logo" transform="translate(143.000000, 80.000000)">
                <path d="M79.5484522,92.5673285 L81.6645357,87.2224353 L83.7769179,92.5673285 L79.5484522,92.5673285 Z M83.8606999,84.1872878 L79.4663526,84.1872878 L73.3257066,98.6800843 L77.1325707,98.6800843 L78.5312921,95.1431846 L84.7957604,95.1431846 L86.1948183,98.6800843 L90,98.6800843 L83.8606999,84.1872878 L83.8606999,84.1872878 Z M52.8681023,96.1603026 C50.3879542,96.1603026 48.3812248,94.0054906 48.3812248,91.3463332 C48.3812248,88.6865276 50.3879542,86.5300949 52.8681023,86.5300949 C55.3435397,86.5300949 57.3532974,88.6862035 57.3532974,91.3463332 C57.3532974,94.0054906 55.3435397,96.1603026 52.8681023,96.1603026 L52.8681023,96.1603026 Z M52.8681023,83.6907216 C48.4781292,83.6907216 44.9195828,87.1183897 44.9195828,91.3463332 C44.9195828,95.5739526 48.4781292,99 52.8681023,99 C57.2547106,99 60.8149394,95.5739526 60.8149394,91.3463332 C60.8149394,87.1183897 57.2547106,83.6907216 52.8681023,83.6907216 L52.8681023,83.6907216 Z M21.5087483,96.1603026 C19.0333109,96.1603026 17.0248991,94.0054906 17.0248991,91.3463332 C17.0248991,88.6865276 19.0333109,86.5300949 21.5087483,86.5300949 C23.987214,86.5300949 25.9956258,88.6862035 25.9956258,91.3463332 C25.9959623,94.0054906 23.987214,96.1603026 21.5087483,96.1603026 L21.5087483,96.1603026 Z M21.5087483,83.6907216 C17.1204576,83.6907216 13.5649394,87.1183897 13.5649394,91.3463332 C13.5649394,95.5739526 17.1204576,99 21.5087483,99 C25.8973755,99 29.4559219,95.5739526 29.4559219,91.3463332 C29.4559219,87.1183897 25.8973755,83.6907216 21.5087483,83.6907216 L21.5087483,83.6907216 Z M41.1510767,84.1872878 L37.2574024,90.0507881 L33.3603634,84.1872878 L29.5521534,84.1872878 L35.5800808,93.2758753 L35.5800808,98.6800843 L38.9323688,98.6800843 L38.9323688,93.2768477 L44.9596231,84.1872878 L41.1510767,84.1872878 Z M74.1268506,84.1872878 L61.2644684,84.1872878 L61.2644684,86.9663731 L66.0286003,86.9663731 L66.0286003,98.6800843 L69.384253,98.6800843 L69.384253,86.9663731 L74.1271871,86.9663731 L74.1271871,84.1872878 L74.1268506,84.1872878 Z M0,86.9663731 L4.76547779,86.9663731 L4.76547779,98.6800843 L8.11911171,98.6800843 L8.11911171,86.9663731 L12.8640646,86.9663731 L12.8640646,84.1872878 L0,84.1872878 L0,86.9663731 Z" id="Shape" fill="#000000"></path>
                <polygon id="Shape" fill="#D71921" points="10.2272727 0 78.75 0 78.75 67.3608247 10.2272727 67.3608247"></polygon>
                <path d="M44.4886364,18.371134 C31.4540001,18.371134 21.4772727,25.1561422 21.4772727,34.1907216 C21.4772727,42.9276857 31.1995739,50.0103093 44.4886364,50.0103093 C57.7776989,50.0103093 67.5,42.9276857 67.5,34.1907216 C67.5,25.1561422 57.5232726,18.371134 44.4886364,18.371134 L44.4886364,18.371134 Z M58.836838,25.1561422 C59.3162414,27.1063698 57.0661272,29.5436357 49.8250812,30.3407333 C49.3429383,25.3739096 47.8841822,21.1779131 45.4649072,20.2892149 C48.7207412,20.3818525 51.8074143,20.9376777 54.4982371,21.9231613 C57.0147626,22.8816833 58.5783026,24.1042914 58.836838,25.1561422 Z M48.1115564,34.1143302 C48.1115564,40.4074608 46.2391437,43.0158296 44.4886364,43.0158296 C42.7381291,43.0158296 40.8657163,40.4074608 40.8657163,34.1143302 L40.8660587,34.0486544 C42.0292969,34.1482052 43.2404753,34.2000545 44.4886364,34.2000545 C45.7367974,34.2000545 46.9479759,34.1482052 48.111214,34.0486544 L48.1115564,34.1143302 L48.1115564,34.1143302 Z M44.4876091,30.6065477 C43.2665001,30.6065477 42.1371626,30.5712901 41.0930905,30.5063056 C41.6430347,26.3911942 43.1038454,23.9988643 44.4886364,23.9988643 C45.8734274,23.9988643 47.334238,26.3911942 47.8841822,30.5063056 C46.8394252,30.5712901 45.7094029,30.6065477 44.4876091,30.6065477 L44.4876091,30.6065477 Z M30.1380377,25.1561422 C30.3952034,24.109822 31.9440189,22.8941272 34.4379439,21.9376792 C37.1380124,20.9428626 40.2397524,20.3821981 43.5120231,20.2892149 C41.0930905,21.1779131 39.6343344,25.3739096 39.1518491,30.341079 C31.9094333,29.544327 29.6586343,27.1067154 30.1380377,25.1561422 L30.1380377,25.1561422 Z M24.870764,33.6207243 C24.870764,30.9563581 25.7545784,28.6542462 27.2924361,26.7479178 C27.4917309,30.2802424 32.2248123,32.9145359 38.9744699,33.8391829 L38.9734426,34.1139846 C38.9734426,42.6366379 41.137949,47.1544461 43.537363,48.0877347 C33.2339565,47.7140736 24.870764,41.3082571 24.870764,33.6207243 Z M45.3977907,48.0891174 C47.8136414,47.1153863 50.0038302,42.2678161 50.0038302,34.1139846 L50.0028029,33.8391829 C56.752118,32.9145359 61.4855418,30.2802424 61.6848366,26.7479178 C63.2226943,28.6542462 64.1065087,30.9563581 64.1065087,33.6207243 C64.1065087,41.318627 55.7203734,47.7313568 45.3977907,48.0891174 Z" id="Shape" fill="#FFFFFF"></path>
            </g>
        </g>
    </g>
</svg>